<?xml version="1.0" encoding="UTF-8" standalone="no"?>
<svg
   xmlns:dc="http://purl.org/dc/elements/1.1/"
   xmlns:cc="http://creativecommons.org/ns#"
   xmlns:rdf="http://www.w3.org/1999/02/22-rdf-syntax-ns#"
   xmlns:svg="http://www.w3.org/2000/svg"
   xmlns="http://www.w3.org/2000/svg"
   xmlns:xlink="http://www.w3.org/1999/xlink"
   xmlns:sodipodi="http://sodipodi.sourceforge.net/DTD/sodipodi-0.dtd"
   xmlns:inkscape="http://www.inkscape.org/namespaces/inkscape"
   sodipodi:docname="lampe.svg"
   inkscape:version="1.0 (4035a4fb49, 2020-05-01)"
   id="svg4237"
   version="1.1"
   viewBox="0 0 47.916958 94.005714"
   height="94.005714mm"
   width="47.916958mm">
  <defs
     id="defs4231">
    <radialGradient
       inkscape:collect="always"
       xlink:href="#linearGradient5660"
       id="radialGradient5666"
       cx="785.14966"
       cy="230.29321"
       fx="785.14966"
       fy="230.29321"
       r="17.406748"
       gradientTransform="matrix(1.4444444,0.02020202,-0.02585041,1.848304,-1030.4471,-282.22493)"
       gradientUnits="userSpaceOnUse" />
    <linearGradient
       inkscape:collect="always"
       id="linearGradient5660">
      <stop
         style="stop-color:#ffc75c;stop-opacity:0.49777779"
         offset="0"
         id="stop5662" />
      <stop
         style="stop-color:#ffffff;stop-opacity:0;"
         offset="1"
         id="stop5664" />
    </linearGradient>
    <filter
       inkscape:collect="always"
       style="color-interpolation-filters:sRGB"
       id="filter5833"
       x="-0.07531561"
       width="1.1506312"
       y="-0.071199998"
       height="1.1424">
      <feGaussianBlur
         inkscape:collect="always"
         stdDeviation="1.9091158"
         id="feGaussianBlur5835" />
    </filter>
    <radialGradient
       inkscape:collect="always"
       xlink:href="#linearGradient5692"
       id="radialGradient5666-4"
       cx="785.14966"
       cy="230.29321"
       fx="785.14966"
       fy="230.29321"
       r="17.406748"
       gradientTransform="matrix(0.63640429,0.01887663,-0.0182486,0.6152308,-397.38346,5.258144)"
       gradientUnits="userSpaceOnUse" />
    <linearGradient
       id="linearGradient5692"
       inkscape:collect="always">
      <stop
         id="stop5694"
         offset="0"
         style="stop-color:#ffc75c;stop-opacity:0.37333333" />
      <stop
         id="stop5696"
         offset="1"
         style="stop-color:#ffffff;stop-opacity:0;" />
    </linearGradient>
    <filter
       inkscape:collect="always"
       style="color-interpolation-filters:sRGB"
       id="filter5825"
       x="-0.067907512"
       width="1.135815"
       y="-0.064196721"
       height="1.1283934">
      <feGaussianBlur
         inkscape:collect="always"
         stdDeviation="1.7213339"
         id="feGaussianBlur5827" />
    </filter>
    <filter
       inkscape:collect="always"
       style="color-interpolation-filters:sRGB"
       id="filter5723"
       x="-0.10930371"
       width="1.2186074"
       y="-0.74998522"
       height="2.4999704">
      <feGaussianBlur
         inkscape:collect="always"
         stdDeviation="0.67998974"
         id="feGaussianBlur5725" />
    </filter>
    <radialGradient
       inkscape:collect="always"
       xlink:href="#linearGradient5799"
       id="radialGradient5666-1"
       cx="785.14966"
       cy="230.29321"
       fx="785.14966"
       fy="230.29321"
       r="17.406748"
       gradientTransform="matrix(2.6558255,0.05539227,-0.12825228,6.0948834,-1511.359,-1214.7592)"
       gradientUnits="userSpaceOnUse" />
    <linearGradient
       inkscape:collect="always"
       id="linearGradient5799">
      <stop
         style="stop-color:#ffc75c;stop-opacity:0.36862746"
         offset="0"
         id="stop5801" />
      <stop
         style="stop-color:#ffffff;stop-opacity:0;"
         offset="1"
         id="stop5803" />
    </linearGradient>
    <filter
       inkscape:collect="always"
       style="color-interpolation-filters:sRGB"
       id="filter5857"
       x="-0.19977865"
       width="1.3995574"
       y="-0.18930337"
       height="1.3786067">
      <feGaussianBlur
         inkscape:collect="always"
         stdDeviation="7.4057797"
         id="feGaussianBlur5859" />
    </filter>
  </defs>
  <sodipodi:namedview
     inkscape:window-maximized="0"
     inkscape:window-y="0"
     inkscape:window-x="104"
     inkscape:window-height="1040"
     inkscape:window-width="1452"
     fit-margin-bottom="1"
     fit-margin-right="1"
     fit-margin-left="1"
     fit-margin-top="1"
     lock-margins="true"
     showgrid="false"
     inkscape:document-rotation="0"
     inkscape:current-layer="layer1"
     inkscape:document-units="mm"
     inkscape:cy="423.36288"
     inkscape:cx="87.694591"
     inkscape:zoom="0.35"
     inkscape:pageshadow="2"
     inkscape:pageopacity="0.0"
     borderopacity="1.0"
     bordercolor="#666666"
     pagecolor="#ffffff"
     id="base" />
  <metadata
     id="metadata4234">
    <rdf:RDF>
      <cc:Work
         rdf:about="">
        <dc:format>image/svg+xml</dc:format>
        <dc:type
           rdf:resource="http://purl.org/dc/dcmitype/StillImage" />
        <dc:title></dc:title>
      </cc:Work>
    </rdf:RDF>
  </metadata>
  <g
     transform="translate(-82.630806,-36.151904)"
     id="layer1"
     inkscape:groupmode="layer"
     inkscape:label="Calque 1">
    <g
       transform="matrix(0.28222223,0,0,0.28222223,78.307641,60.43031)"
       style="display:inline;opacity:1"
       id="g4189">
      <path
         d="m 128.47434,161.39845 a 30.417852,32.176109 0 0 1 -30.41785,32.17611 30.417852,32.176109 0 0 1 -30.41786,-32.17611 30.417852,32.176109 0 0 1 30.41786,-32.17611 30.417852,32.176109 0 0 1 30.41785,32.17611"
         style="opacity:0.735;fill:url(#radialGradient5666);fill-opacity:1;fill-rule:nonzero;stroke:none;stroke-width:0.45;stroke-linecap:round;stroke-linejoin:round;stroke-miterlimit:4;stroke-dasharray:none;stroke-dashoffset:0;stroke-opacity:1;filter:url(#filter5833)"
         id="path5658" />
      <path
         inkscape:connector-curvature="0"
         id="path4208"
         d="m 101.97237,122.98792 a 4.1870351,4.1870351 0 0 0 -3.7785,-2.39252 4.1870351,4.1870351 0 0 0 -3.77754,2.39252 z"
         style="fill:none;fill-opacity:1;fill-rule:nonzero;stroke:#ffc65b;stroke-width:0.45;stroke-linecap:round;stroke-linejoin:round;stroke-miterlimit:4;stroke-dasharray:none;stroke-dashoffset:0;stroke-opacity:1" />
      <path
         inkscape:connector-curvature="0"
         id="path4213"
         d="m 105.46157,134.62536 v -8.75497 h -9.9e-4 a 1.8942208,1.8942208 0 0 0 0.003,-0.0834 1.8942208,1.8942208 0 0 0 -1.89386,-1.89434 1.8942208,1.8942208 0 0 0 -0.1701,0.009 h -10.7254 a 1.9163744,1.9163744 0 0 0 -0.18124,-0.009 1.9163744,1.9163744 0 0 0 -0.17155,0.009 h -0.0422 v 0.005 a 1.9163744,1.9163744 0 0 0 -1.70293,1.9021 1.9163744,1.9163744 0 0 0 0.003,0.0611 v 8.75497 h 14.88239 z"
         style="fill:none;fill-opacity:1;fill-rule:nonzero;stroke:#ffc65b;stroke-width:0.45;stroke-linecap:round;stroke-linejoin:round;stroke-miterlimit:4;stroke-dasharray:none;stroke-dashoffset:0;stroke-opacity:1" />
      <path
         sodipodi:nodetypes="scccccscscccsscccccccscccccs"
         inkscape:connector-curvature="0"
         id="path4238"
         d="m 98.15413,182.56352 c 10.20897,0 18.48498,-8.27601 18.48498,-18.48498 -0.005,-2.97468 -0.72782,-5.90421 -2.10709,-8.53981 h 0.0286 c 0,0 -0.0899,-0.1429 -0.12309,-0.1953 -0.33611,-0.62669 -0.7081,-1.23346 -1.11412,-1.81729 -2.09755,-3.4871 -6.1673,-10.63753 -6.47198,-14.13415 -0.42357,-4.86115 -2.6304,-3.83167 -8.6973,-4.10659 -7.686,0.13421 -8.59141,-0.0624 -8.94543,4.52045 -0.35477,4.59266 -7.49014,15.68587 -7.49014,15.68587 h 0.0775 c -1.39353,2.64794 -2.12341,5.59458 -2.12696,8.58682 0,10.20897 8.27601,18.48498 18.48499,18.48498 z m 0.062,-2.97745 c -8.56458,0 -15.50754,-6.94296 -15.50754,-15.50753 0.21751,-3.37854 1.45529,-6.82176 2.6358,-8.66244 0,0 5.53445,-8.66716 5.81387,-12.28439 0.27883,-3.6095 0.99217,-3.45473 7.04575,-3.56043 3.63554,0.16474 5.50978,-0.26298 6.34598,1.20813 0.0232,0.038 0.0446,0.0794 0.0664,0.12018 4.9e-4,0.001 9.9e-4,0.002 0.001,0.003 0.24352,0.45826 0.39461,1.08987 0.47104,1.96703 0.10648,1.22206 0.80765,3.01739 1.69517,4.87567 h -5e-4 c 1.83223,3.81756 4.45115,7.90157 4.45115,7.90157 h -0.007 c 1.62818,2.51088 2.49511,5.43921 2.4962,8.43177 0,8.56457 -6.94296,15.50753 -15.50753,15.50753 z"
         style="fill:none;fill-opacity:1;fill-rule:nonzero;stroke:#ffc65b;stroke-width:0.45;stroke-linecap:round;stroke-linejoin:round;stroke-miterlimit:4;stroke-dasharray:none;stroke-dashoffset:0;stroke-opacity:1" />
      <path
         inkscape:connector-curvature="0"
         id="path4299"
         d="m 100.17011,141.22021 -1.68485,0.0195 4.34234,16.97457 h 0.74565 z"
         style="fill:none;fill-opacity:1;fill-rule:evenodd;stroke:#ffc65b;stroke-width:0.45;stroke-linecap:butt;stroke-linejoin:miter;stroke-miterlimit:4;stroke-dasharray:none;stroke-opacity:1" />
      <path
         inkscape:connector-curvature="0"
         id="path4299-2"
         d="m 96.03283,141.22994 1.68485,0.0195 -4.34233,16.97457 h -0.74566 z"
         style="fill:none;fill-opacity:1;fill-rule:evenodd;stroke:#ffc65b;stroke-width:0.45;stroke-linecap:butt;stroke-linejoin:miter;stroke-miterlimit:4;stroke-dasharray:none;stroke-opacity:1" />
      <path
         inkscape:connector-curvature="0"
         id="path4322"
         d="m 94.60775,162.46721 c -10e-6,-0.002 -5e-4,-0.004 -5e-4,-0.006 0.005,-0.47963 0.24832,-0.98569 0.8975,-0.98569 0.65048,0 0.84936,0.50811 0.85388,0.9886 h 10e-4 c 0,0 0,5e-4 0,5e-4 h 0.76811 c 0.005,-0.48049 0.24702,-0.98861 0.8975,-0.98861 0.65047,0 0.84936,0.50812 0.85388,0.98861 h 0.76762 c 0,-2.5e-4 0,-7.5e-4 0,-9.9e-4 h 5e-4 c 0.005,-0.48049 0.24702,-0.98861 0.8975,-0.98861 0.65048,0 0.84937,0.50812 0.85388,0.98861 h 0.001 c 0,1.6e-4 0,2.4e-4 0,4.9e-4 h 0.76811 c 0.005,-0.48049 0.24751,-0.9886 0.89798,-0.9886 0.65048,0 0.84888,0.50811 0.8534,0.9886 h 0.76763 c -0.004,-0.905 -0.26648,-1.94406 -1.6157,-1.94426 -0.61851,-8e-5 -1.01837,0.21955 -1.27258,0.54325 -0.24162,-0.32377 -0.63022,-0.54364 -1.24885,-0.54373 -0.61822,-9e-5 -1.01786,0.21931 -1.2721,0.54276 -0.24172,-0.3227 -0.63,-0.5417 -1.24738,-0.54179 -0.61838,-9e-5 -1.01836,0.21919 -1.27259,0.54276 -0.24165,-0.32348 -0.63008,-0.54267 -1.24836,-0.54276 -0.61837,-9e-5 -1.01836,0.21919 -1.27259,0.54276 -0.24183,-0.32164 -0.62978,-0.53976 -1.24593,-0.53985 -1.34921,-2e-4 -1.6672,1.03906 -1.67094,1.94425 h 0.76811 c 0.005,-0.48049 0.24702,-0.9886 0.8975,-0.9886 0.6459,0 0.84619,0.50096 0.8534,0.97843 -1e-5,0.002 -5e-4,0.005 -5e-4,0.007 h 0.001 c 1e-5,0.001 -1e-5,0.002 0,0.003 h 0.76762 z"
         style="fill:#ffc75c;fill-opacity:0.373333;fill-rule:nonzero;stroke:#ffc65b;stroke-width:0.45;stroke-linecap:round;stroke-linejoin:round;stroke-miterlimit:4;stroke-dasharray:none;stroke-dashoffset:0;stroke-opacity:1" />
      <path
         d="M 128.85611,163.87251 A 30.417852,32.176109 0 0 1 98.43826,196.04862 30.417852,32.176109 0 0 1 68.02041,163.87251 30.417852,32.176109 0 0 1 98.43826,131.6964 30.417852,32.176109 0 0 1 128.85611,163.87251"
         style="display:inline;opacity:0.735;fill:url(#radialGradient5666-4);fill-opacity:1;fill-rule:nonzero;stroke:none;stroke-width:0.45;stroke-linecap:round;stroke-linejoin:round;stroke-miterlimit:4;stroke-dasharray:none;stroke-dashoffset:0;stroke-opacity:1;filter:url(#filter5825)"
         id="path5658-6" />
      <path
         transform="matrix(1.1894465,0,0,1.7131293,-537.57153,-240.93894)"
         inkscape:connector-curvature="0"
         id="path4322-2"
         d="m 531.00235,236.13639 c -10e-6,-0.002 -5.6e-4,-0.004 -5.6e-4,-0.007 0.006,-0.53574 0.27737,-1.101 1.00249,-1.101 0.72657,0 0.94871,0.56755 0.95376,1.10425 h 10e-4 c 0,0 0,5.6e-4 0,5.6e-4 h 0.85796 c 0.006,-0.5367 0.27591,-1.10426 1.00248,-1.10426 0.72656,0 0.94872,0.56756 0.95377,1.10426 h 0.85741 c 0,-2.8e-4 0,-8.4e-4 0,-10e-4 h 5.6e-4 c 0.006,-0.5367 0.27591,-1.10425 1.00248,-1.10425 0.72659,0 0.94874,0.56755 0.95378,1.10425 h 10e-4 c 0,1.8e-4 0,2.7e-4 0,5.5e-4 h 0.85796 c 0.006,-0.5367 0.27646,-1.10425 1.00302,-1.10425 0.72657,0 0.94818,0.56755 0.95322,1.10425 h 0.85743 c -0.004,-1.01087 -0.29765,-2.17147 -1.8047,-2.17169 -0.69086,-9e-5 -1.13749,0.24523 -1.42144,0.60679 -0.26988,-0.36164 -0.70394,-0.60723 -1.39495,-0.60733 -0.69053,-1e-4 -1.13692,0.24496 -1.4209,0.60625 -0.27,-0.36045 -0.7037,-0.60507 -1.39329,-0.60517 -0.69072,-1e-4 -1.13749,0.24483 -1.42146,0.60625 -0.26991,-0.36132 -0.70378,-0.60615 -1.39438,-0.60625 -0.69071,-1e-4 -1.13749,0.24483 -1.42146,0.60625 -0.27012,-0.35926 -0.70345,-0.6029 -1.39167,-0.603 -1.50704,-2.2e-4 -1.86222,1.16061 -1.8664,2.17168 h 0.85796 c 0.006,-0.53669 0.27592,-1.10424 1.00249,-1.10424 0.72145,0 0.94517,0.55956 0.95322,1.09288 -1e-5,0.002 -5.6e-4,0.006 -5.6e-4,0.008 h 10e-4 c 1e-5,0.001 -10e-6,0.002 0,0.003 h 0.85741 z"
         style="display:inline;fill:#ffc75c;fill-opacity:1;fill-rule:nonzero;stroke:none;stroke-width:0.503;stroke-linecap:round;stroke-linejoin:round;stroke-miterlimit:4;stroke-dasharray:none;stroke-dashoffset:0;stroke-opacity:1;filter:url(#filter5723)" />
      <path
         d="m 589.324,235.42067 a 44.48391,46.945469 0 0 1 -44.48391,46.94547 44.48391,46.945469 0 0 1 -44.48391,-46.94547 44.48391,46.945469 0 0 1 44.48391,-46.94547 44.48391,46.945469 0 0 1 44.48391,46.94547"
         transform="matrix(1.3066469,0,0,1.2599719,-611.70307,-134.64602)"
         style="display:inline;opacity:0.857;fill:url(#radialGradient5666-1);fill-opacity:1;fill-rule:nonzero;stroke:none;stroke-width:0.45;stroke-linecap:round;stroke-linejoin:round;stroke-miterlimit:4;stroke-dasharray:none;stroke-dashoffset:0;stroke-opacity:1;filter:url(#filter5857)"
         id="path5658-3" />
      <path
         inkscape:connector-curvature="0"
         id="path5863"
         d="M 98.29958,-82.482538 V 119.72281"
         style="fill:#ffffff;fill-rule:evenodd;stroke:#ffffff;stroke-width:1.05257;stroke-linecap:butt;stroke-linejoin:miter;stroke-miterlimit:4;stroke-dasharray:3.1577, 3.1577;stroke-dashoffset:0;stroke-opacity:1" />
    </g>
  </g>
</svg>
